<?xml version="1.0" standalone="no"?>
<!DOCTYPE svg PUBLIC "-//W3C//DTD SVG 20010904//EN"
 "http://www.w3.org/TR/2001/REC-SVG-20010904/DTD/svg10.dtd">
<svg version="1.0" xmlns="http://www.w3.org/2000/svg"
 width="200.000000pt" height="200.000000pt" viewBox="0 0 200.000000 200.000000"
 preserveAspectRatio="xMidYMid meet">
<metadata>
Created by potrace 1.11, written by Peter Selinger 2001-2013
</metadata>
<g transform="translate(0.000000,200.000000) scale(0.100000,-0.100000)"
fill="#000000" stroke="none">
<path d="M868 1595 c-103 -26 -196 -81 -279 -164 -94 -94 -142 -185 -166 -315
-20 -109 -9 -218 33 -322 l27 -68 -46 -150 c-35 -116 -43 -154 -34 -163 9 -8
45 1 148 39 l137 50 93 -38 c209 -83 427 -50 604 93 74 60 154 177 184 269
101 307 -65 644 -370 751 -92 32 -243 40 -331 18z m273 -396 c71 -67 129 -125
129 -130 0 -5 -9 -9 -20 -9 -18 0 -20 -8 -22 -152 l-3 -153 -66 -3 c-46 -2
-69 1 -77 11 -6 7 -12 49 -14 92 l-3 80 -51 3 c-33 2 -55 -2 -62 -11 -6 -7
-12 -49 -14 -92 l-3 -80 -63 -3 c-38 -2 -69 2 -78 9 -11 9 -14 44 -14 155 0
139 -1 144 -21 144 -11 0 -19 4 -17 8 5 12 257 252 264 252 4 0 64 -55 135
-121z"/>
</g>
</svg>
